# Rhino

mtllib thintunnel.mtl
usemtl diffuse_0
v -4.2407708168029785 -5 4.2407708168029785
v -4.2407708168029785 29.97974967956543 4.2407708168029785
v 4.2407708168029785 -5 4.2407708168029785
v 4.2407708168029785 29.97974967956543 4.2407708168029785
v 4.2407708168029785 -5 4.2407708168029785
v 4.2407708168029785 29.97974967956543 4.2407708168029785
v 4.2407708168029785 -5 -4.2407708168029785
v 4.2407708168029785 29.97974967956543 -4.2407708168029785
v 4.2407708168029785 -5 -4.2407708168029785
v 4.2407708168029785 29.97974967956543 -4.2407708168029785
v -4.2407708168029785 -5 -4.2407708168029785
v -4.2407708168029785 29.97974967956543 -4.2407708168029785
v -4.2407708168029785 -5 -4.2407708168029785
v -4.2407708168029785 29.97974967956543 -4.2407708168029785
v -4.2407708168029785 -5 4.2407708168029785
v -4.2407708168029785 29.97974967956543 4.2407708168029785
v -4.2407708168029785 29.97974967956543 4.2407708168029785
v -4.2407708168029785 29.97974967956543 -4.2407708168029785
v 4.2407708168029785 29.97974967956543 4.2407708168029785
v 4.2407708168029785 29.97974967956543 -4.2407708168029785
vt 0.40000000596046448 0
vt 0.40000000596046448 0.8233792781829834
vt 0.59853518009185791 0
vt 0.59853518009185791 0.8233792781829834
vt 0.80000001192092896 0
vt 0.80000001192092896 0.8233792781829834
vt 0.99853515625 0
vt 0.99853515625 0.8233792781829834
vt 0.60000002384185791 0
vt 0.60000002384185791 0.8233792781829834
vt 0.79853516817092896 0
vt 0.79853516817092896 0.8233792781829834
vt 0.20000000298023224 0
vt 0.20000000298023224 0.8233792781829834
vt 0.39853516221046448 0
vt 0.39853516221046448 0.8233792781829834
vt 0 0
vt 0 0.20000000298023224
vt 0.19853515923023224 0
vt 0.19853515923023224 0.20000000298023224
vn 0 0 1
vn 0 0 1
vn 0 0 1
vn 0 0 1
vn 1 0 0
vn 1 0 0
vn 1 0 0
vn 1 0 0
vn 0 0 -1
vn 0 0 -1
vn 0 0 -1
vn 0 0 -1
vn -1 0 0
vn -1 0 0
vn -1 0 0
vn -1 0 0
vn 0 1 0
vn 0 1 0
vn 0 1 0
vn 0 1 0
f 2/2/2 1/1/1 3/3/3 4/4/4
f 6/6/6 5/5/5 7/7/7 8/8/8
f 10/10/10 9/9/9 11/11/11 12/12/12
f 14/14/14 13/13/13 15/15/15 16/16/16
f 18/18/18 17/17/17 19/19/19 20/20/20
